<?xml version="1.0"?>
<svg xmlns="http://www.w3.org/2000/svg" xmlns:xlink="http://www.w3.org/1999/xlink" xmlns:svgjs="http://svgjs.com/svgjs" version="1.1" width="512" height="512" x="0" y="0" viewBox="0 0 512 512" style="enable-background:new 0 0 512 512" xml:space="preserve" class=""><g>
<path xmlns="http://www.w3.org/2000/svg" style="" d="M224.057,512v-30.046c74.554,0,135.208-60.654,135.208-135.208s-60.654-135.208-135.208-135.208  h-45.069v41.276L52.581,126.407L178.988,0v41.276h45.069c62.868,0,121.971,24.482,166.426,68.936s68.936,103.558,68.936,166.426  s-24.482,121.971-68.936,166.426S286.925,512,224.057,512z" fill="#fd5266" data-original="#66e26f" class=""/>
<path xmlns="http://www.w3.org/2000/svg" style="" d="M390.483,110.212c-44.454-44.453-103.558-68.936-166.426-68.936h-45.069V0L52.581,126.407h171.477  c102.33,0,185.285,82.955,185.285,185.285s-82.955,185.285-185.285,185.285V512c62.868,0,121.971-24.482,166.426-68.936  s68.936-103.558,68.936-166.426S434.938,154.667,390.483,110.212z" fill="#fd5266" data-original="#48cc4e" class=""/>
<g xmlns="http://www.w3.org/2000/svg">
</g>
<g xmlns="http://www.w3.org/2000/svg">
</g>
<g xmlns="http://www.w3.org/2000/svg">
</g>
<g xmlns="http://www.w3.org/2000/svg">
</g>
<g xmlns="http://www.w3.org/2000/svg">
</g>
<g xmlns="http://www.w3.org/2000/svg">
</g>
<g xmlns="http://www.w3.org/2000/svg">
</g>
<g xmlns="http://www.w3.org/2000/svg">
</g>
<g xmlns="http://www.w3.org/2000/svg">
</g>
<g xmlns="http://www.w3.org/2000/svg">
</g>
<g xmlns="http://www.w3.org/2000/svg">
</g>
<g xmlns="http://www.w3.org/2000/svg">
</g>
<g xmlns="http://www.w3.org/2000/svg">
</g>
<g xmlns="http://www.w3.org/2000/svg">
</g>
<g xmlns="http://www.w3.org/2000/svg">
</g>
</g></svg>
