<?xml version="1.0" standalone="no"?><svg xmlns="http://www.w3.org/2000/svg" viewBox="0 0 1440 320"><path fill="#FD5266" fill-opacity="1" d="M0,0L20,48C40,96,80,192,120,213.3C160,235,200,181,240,165.3C280,149,320,171,360,165.3C400,160,440,128,480,128C520,128,560,160,600,160C640,160,680,128,720,101.3C760,75,800,53,840,48C880,43,920,53,960,85.3C1000,117,1040,171,1080,192C1120,213,1160,203,1200,165.3C1240,128,1280,64,1320,64C1360,64,1400,128,1420,160L1440,192L1440,0L1420,0C1400,0,1360,0,1320,0C1280,0,1240,0,1200,0C1160,0,1120,0,1080,0C1040,0,1000,0,960,0C920,0,880,0,840,0C800,0,760,0,720,0C680,0,640,0,600,0C560,0,520,0,480,0C440,0,400,0,360,0C320,0,280,0,240,0C200,0,160,0,120,0C80,0,40,0,20,0L0,0Z"></path></svg>